<mxfile host="app.diagrams.net" modified="2023-03-28T13:54:21.446Z" agent="Mozilla/5.0 (Macintosh; Intel Mac OS X 10_15_7) AppleWebKit/537.36 (KHTML, like Gecko) Chrome/111.0.0.0 Safari/537.36" version="21.1.0" etag="2i6qR2OEuiRQ0Loygk0v" type="github">
  <diagram name="Page-1" id="U1J34Hvgdh1xQZVyHAzm">
    <mxGraphModel>
      <root>
        <mxCell id="0" />
        <mxCell id="1" parent="0" />
      </root>
    </mxGraphModel>
  </diagram>
</mxfile>
